<?xml version="1.0" encoding="UTF-8"?>
<svg id="Layer_1" data-name="Layer 1" xmlns="http://www.w3.org/2000/svg" viewBox="0 0 430.72 98.13">
  <defs>
    <style>
      .cls-1 {
        fill: #fff;
      }
    </style>
  </defs>
  <g>
    <rect class="cls-1" y="88.17" width="42.31" height="1.43"/>
    <rect class="cls-1" x="388.41" y="88.17" width="42.31" height="1.43"/>
  </g>
  <g>
    <path class="cls-1" d="M7.13.93h16.64c4.47,0,8.08,1.3,10.82,3.91,2.74,2.61,4.11,6.04,4.11,10.29,0,2.79-.67,5.44-2.02,7.95-1.35,2.51-3.38,4.38-6.1,5.62-2.72,1.24-5.04,1.88-6.97,1.93l-6.08.15v18.83H7.13V.93ZM17.4,9.67v12.45h4.08c1.75,0,3.26-.63,4.5-1.89s1.87-2.76,1.87-4.49c0-1.98-.7-3.51-2.11-4.6-1.41-1.09-3.41-1.63-6-1.63l-2.33.15Z"/>
    <path class="cls-1" d="M65.08,49.6v-5.45h-.15c-1.48,2.13-2.98,3.66-4.48,4.61-1.51.95-3.37,1.43-5.6,1.43-3.73,0-6.91-1.61-9.53-4.82-2.62-3.21-3.93-7.12-3.93-11.71s1.4-8.44,4.19-11.69c2.79-3.25,6.1-4.87,9.93-4.87,1.83,0,3.47.41,4.93,1.22,1.46.82,3,2.11,4.63,3.89v-4.41h9.49v31.8h-9.49ZM58.11,26.58c-1.88,0-3.45.75-4.71,2.24s-1.89,3.38-1.89,5.65c0,2.13.6,3.84,1.8,5.13,1.2,1.3,2.77,1.95,4.72,1.95s3.48-.75,4.82-2.24c1.33-1.49,2-3.3,2-5.43,0-1.98-.67-3.69-2-5.13-1.33-1.45-2.92-2.17-4.75-2.17Z"/>
    <path class="cls-1" d="M82.49,5.91c0-1.61.58-3,1.74-4.16,1.16-1.17,2.56-1.75,4.19-1.75s3.03.58,4.19,1.75c1.16,1.17,1.74,2.55,1.74,4.16s-.58,3.04-1.74,4.2c-1.16,1.17-2.56,1.75-4.19,1.75s-3.03-.58-4.19-1.75c-1.16-1.17-1.74-2.57-1.74-4.2ZM83.72,17.72h9.49v31.88h-9.49v-31.88Z"/>
    <path class="cls-1" d="M123.79,47.78v-3.74c-2.84,3.61-6.13,5.41-9.86,5.41-4,0-7.35-1.54-10.03-4.63-2.68-3.09-4.02-6.96-4.02-11.6s1.39-8.32,4.17-11.47c2.78-3.15,6.12-4.73,10.03-4.73,3.31,0,6.55,1.73,9.71,5.19v-4.41h9.42v32.25c0,1.78-.56,3.82-1.69,6.13-1.12,2.31-3.04,4.02-5.75,5.12-2.71,1.1-5.84,1.65-9.4,1.65-4.42,0-7.96-.83-10.62-2.48-2.66-1.66-4.57-4.5-5.73-8.53h10.64c2.08,2.89,4.32,4.34,6.75,4.34,1.88,0,3.41-.78,4.6-2.35,1.19-1.57,1.78-3.61,1.78-6.13ZM110,33.47c0,1.63.71,3.22,2.13,4.76,1.42,1.54,3.08,2.32,4.98,2.32s3.44-.73,4.76-2.21c1.32-1.47,1.98-3.27,1.98-5.39s-.63-3.97-1.89-5.37c-1.26-1.41-2.88-2.11-4.86-2.11s-3.69.74-5.06,2.21c-1.37,1.47-2.06,3.4-2.06,5.8Z"/>
    <path class="cls-1" d="M172.33,35.92h-22.72c.12,2.05.8,3.72,2.02,5,1.22,1.29,2.65,1.93,4.28,1.93,2.92,0,5.2-1.32,6.86-3.97l8.71,2.89c-3.24,5.66-8.27,8.49-15.09,8.49-5.02,0-9.01-1.52-11.97-4.56s-4.45-7.13-4.45-12.27c0-4.62,1.56-8.5,4.69-11.64,3.13-3.14,6.97-4.71,11.55-4.71s8.43,1.65,11.51,4.95c3.08,3.3,4.62,7.42,4.62,12.36v1.52ZM149.68,29.54h12.83c-.89-3.98-2.93-5.97-6.12-5.97-1.83,0-3.34.52-4.54,1.56-1.2,1.04-1.92,2.51-2.17,4.41Z"/>
    <path class="cls-1" d="M211.81.93h10.38v34.47c0,4.47-1.24,8.07-3.71,10.79-2.47,2.72-5.71,4.08-9.71,4.08-2.89,0-5.48-.85-7.77-2.56s-4.05-4.31-5.28-7.82l7.64-5.78v.15s.3.57.74,1.63c.45,1.06,1.01,2.02,1.69,2.87.68.85,1.41,1.28,2.21,1.28,1.16,0,2.09-.48,2.78-1.45.69-.96,1.04-2.25,1.04-3.85V.93Z"/>
    <path class="cls-1" d="M261.48,35.92h-22.72c.12,2.05.8,3.72,2.02,5,1.22,1.29,2.65,1.93,4.28,1.93,2.92,0,5.2-1.32,6.86-3.97l8.71,2.89c-3.24,5.66-8.27,8.49-15.09,8.49-5.02,0-9.01-1.52-11.97-4.56-2.96-3.04-4.45-7.13-4.45-12.27,0-4.62,1.56-8.5,4.69-11.64,3.12-3.14,6.97-4.71,11.55-4.71s8.43,1.65,11.51,4.95c3.08,3.3,4.62,7.42,4.62,12.36v1.52ZM238.83,29.54h12.83c-.89-3.98-2.93-5.97-6.12-5.97-1.83,0-3.34.52-4.54,1.56-1.2,1.04-1.92,2.51-2.17,4.41Z"/>
    <path class="cls-1" d="M277.91,17.72v3.78c3.24-3.04,6.63-4.56,10.19-4.56,3.04,0,5.55,1.25,7.54,3.74,1.99,2.5,2.98,5.68,2.98,9.56v19.35h-9.64v-17.83c0-1.83-.5-3.37-1.5-4.63s-2.22-1.89-3.65-1.89c-1.73,0-3.15.8-4.26,2.39-1.11,1.59-1.67,3.65-1.67,6.17v15.79h-9.49v-31.88h9.49Z"/>
    <path class="cls-1" d="M307.28.11h9.41v30.04l9.41-12.44h11.38l-10.57,14.04,11.46,17.84h-10.66l-11.03-16.88v16.88h-9.41V.11Z"/>
    <path class="cls-1" d="M342.44,5.91c0-1.61.58-3,1.74-4.16,1.16-1.17,2.56-1.75,4.19-1.75s3.03.58,4.19,1.75c1.16,1.17,1.74,2.55,1.74,4.16s-.58,3.04-1.74,4.2c-1.16,1.17-2.56,1.75-4.19,1.75s-3.03-.58-4.19-1.75c-1.16-1.17-1.74-2.57-1.74-4.2ZM343.67,17.72h9.49v31.88h-9.49v-31.88Z"/>
    <path class="cls-1" d="M372.09,17.72v3.78c3.24-3.04,6.63-4.56,10.19-4.56,3.04,0,5.55,1.25,7.54,3.74,1.99,2.5,2.98,5.68,2.98,9.56v19.35h-9.64v-17.83c0-1.83-.5-3.37-1.5-4.63s-2.22-1.89-3.65-1.89c-1.73,0-3.15.8-4.26,2.39-1.11,1.59-1.67,3.65-1.67,6.17v15.79h-9.49v-31.88h9.49Z"/>
    <path class="cls-1" d="M424.29,22.2l-6.45,3.93c-1.86-1.88-3.6-2.82-5.21-2.82-.79,0-1.48.22-2.05.67-.57.44-.86.99-.86,1.63,0,1.04.33,1.79.99,2.26s2.42,1.19,5.26,2.17c2.85.98,5.1,2.24,6.74,3.77,1.64,1.53,2.47,3.66,2.47,6.38s-1.24,5.1-3.71,7.06c-2.47,1.96-5.44,2.95-8.9,2.95-2.35,0-4.69-.65-7.03-1.96-2.33-1.31-4.32-3.31-5.95-6l7.67-3.48c1.73,2.99,3.52,4.49,5.38,4.49.84,0,1.59-.27,2.26-.81s1-1.16,1-1.85c0-.89-.38-1.56-1.15-2.02-.77-.46-1.33-.69-1.71-.69-.15-.17-1.04-.52-2.67-1.04-6.38-2.08-9.56-5.46-9.56-10.13,0-2.82,1.14-5.12,3.43-6.91,2.29-1.79,5.27-2.69,8.95-2.69,4.08,0,7.77,1.71,11.08,5.12Z"/>
  </g>
  <g>
    <path class="cls-1" d="M83.06,78.14v3.09c-2.16-1.06-4.14-1.59-5.95-1.59-2.32,0-4.28.75-5.87,2.25s-2.39,3.34-2.39,5.53.81,4.09,2.44,5.58c1.63,1.49,3.67,2.24,6.12,2.24,1.78,0,3.66-.56,5.65-1.68v3.12c-1.81.96-3.78,1.44-5.89,1.44-3.1,0-5.75-1.05-7.95-3.15-2.2-2.1-3.3-4.63-3.3-7.59s1.08-5.4,3.24-7.47c2.16-2.07,4.77-3.11,7.81-3.11,1.96,0,3.98.44,6.08,1.32Z"/>
    <path class="cls-1" d="M91.81,77.45h4.33c2.16,0,3.91.54,5.27,1.61,1.36,1.07,2.03,2.45,2.03,4.12,0,1.34-.44,2.52-1.32,3.55-.88,1.03-2.25,1.75-4.1,2.17l5.81,8.56h-3.13l-5.55-8.23h-.61v8.23h-2.73v-20.01ZM94.55,79.86v6.97c4.03.08,6.05-1.08,6.05-3.5,0-.85-.24-1.54-.71-2.08-.47-.54-1.1-.91-1.88-1.1-.79-.19-1.94-.29-3.46-.29Z"/>
    <path class="cls-1" d="M112.16,77.45h11.09v2.73h-8.39v4.99h8.39v2.7h-8.39v6.88h8.39v2.7h-11.09v-20.01Z"/>
    <path class="cls-1" d="M139.42,76.68l9.45,20.78h-2.86l-2.32-5.12h-8.49l-2.3,5.12h-2.84l9.37-20.78ZM139.42,82.92l-3.2,7.14h6.44l-3.24-7.14Z"/>
    <path class="cls-1" d="M153.2,77.45h12.23v2.73h-4.77v17.27h-2.7v-17.27h-4.76v-2.73Z"/>
    <path class="cls-1" d="M173.08,77.45h2.7v20.01h-2.7v-20.01Z"/>
    <path class="cls-1" d="M183.26,77.48h2.88l6.28,14.17,6.33-14.17h2.91l-9.27,20.65-9.13-20.65Z"/>
    <path class="cls-1" d="M209.02,77.45h11.09v2.73h-8.39v4.99h8.39v2.7h-8.39v6.88h8.39v2.7h-11.09v-20.01Z"/>
    <path class="cls-1" d="M254.33,79.68l-2.21,1.77c-.58-.61-1.12-1.06-1.59-1.36-.47-.3-1.16-.45-2.06-.45-.98,0-1.78.22-2.39.67-.61.44-.92,1.02-.92,1.71,0,.61.27,1.14.8,1.6.53.46,1.44.97,2.73,1.52,1.29.55,2.29,1.07,3,1.54.72.48,1.3,1,1.76,1.58.46.58.8,1.18,1.03,1.82.22.64.34,1.31.34,2.02,0,1.66-.6,3.08-1.81,4.25-1.21,1.17-2.67,1.76-4.39,1.76s-3.15-.46-4.44-1.37c-1.28-.92-2.27-2.29-2.96-4.12l2.73-.77c.99,2.25,2.52,3.38,4.57,3.38,1,0,1.82-.3,2.48-.89.66-.59.99-1.35.99-2.25,0-.54-.17-1.09-.52-1.64-.35-.55-.78-1-1.29-1.35-.51-.35-1.33-.76-2.45-1.22-1.12-.46-1.98-.88-2.59-1.26s-1.13-.84-1.57-1.37c-.44-.53-.77-1.05-.97-1.58-.21-.52-.31-1.08-.31-1.68,0-1.43.58-2.65,1.73-3.66,1.15-1.01,2.55-1.51,4.19-1.51,1.09,0,2.19.24,3.31.71,1.12.47,2.05,1.19,2.79,2.15Z"/>
    <path class="cls-1" d="M261.77,77.45h12.23v2.73h-4.77v17.27h-2.7v-17.27h-4.76v-2.73Z"/>
    <path class="cls-1" d="M281.61,77.48h2.73v12.3c0,1.82.44,3.23,1.31,4.22.87,1,2.11,1.49,3.71,1.49s2.83-.46,3.71-1.37,1.33-2.21,1.33-3.87v-12.77h2.73v12.58c0,2.45-.7,4.41-2.1,5.87-1.4,1.47-3.26,2.2-5.58,2.2s-4.28-.74-5.71-2.23c-1.43-1.49-2.14-3.68-2.14-6.58v-11.84Z"/>
    <path class="cls-1" d="M306.52,77.45h4.85c3.84,0,6.7,1.02,8.58,3.05,1.87,2.03,2.81,4.35,2.81,6.96s-.97,4.95-2.91,6.97-4.75,3.03-8.45,3.03h-4.88v-20.01ZM309.25,80.12v14.64h.16c2.03,0,3.56-.09,4.58-.27,1.03-.18,2-.58,2.92-1.2.92-.62,1.65-1.44,2.2-2.46.54-1.02.82-2.14.82-3.37,0-1.54-.43-2.93-1.3-4.18-.87-1.25-1.91-2.08-3.12-2.51s-2.83-.64-4.88-.64h-1.38Z"/>
    <path class="cls-1" d="M331.11,77.45h2.7v20.01h-2.7v-20.01Z"/>
    <path class="cls-1" d="M342.38,87.33c0-2.89,1.09-5.36,3.27-7.42,2.18-2.06,4.79-3.09,7.85-3.09s5.55,1.04,7.71,3.12c2.16,2.08,3.24,4.54,3.24,7.4,0,3.02-1.07,5.58-3.2,7.67-2.13,2.09-4.75,3.13-7.84,3.13s-5.66-1.05-7.8-3.15c-2.15-2.1-3.22-4.65-3.22-7.64ZM361.54,87.46c0-2.21-.79-4.07-2.39-5.58s-3.55-2.27-5.87-2.27-4.1.77-5.68,2.31c-1.58,1.54-2.36,3.38-2.36,5.54s.81,4.03,2.43,5.55c1.62,1.51,3.6,2.27,5.94,2.27,2.16,0,4.02-.77,5.58-2.31,1.57-1.54,2.35-3.38,2.35-5.5Z"/>
  </g>
</svg>